<?xml version="1.0" standalone="no"?>
<!DOCTYPE svg PUBLIC "-//W3C//DTD SVG 20010904//EN"
 "http://www.w3.org/TR/2001/REC-SVG-20010904/DTD/svg10.dtd">
<svg version="1.0" xmlns="http://www.w3.org/2000/svg"
 width="1583.000000pt" height="678.000000pt" viewBox="0 0 1583.000000 678.000000"
 preserveAspectRatio="xMidYMid meet">
<metadata>
Created by potrace 1.16, written by Peter Selinger 2001-2019
</metadata>
<g transform="translate(0.000000,678.000000) scale(0.100000,-0.100000)"
fill="#000000" stroke="none">
<path d="M172 6443 l3 -96 60 -13 c33 -7 63 -13 68 -13 4 -1 7 44 7 98 l0 99
-31 11 c-18 6 -49 11 -71 11 l-39 0 3 -97z"/>
<path d="M358 6528 c-28 -10 -28 -10 -28 -109 0 -54 3 -99 8 -98 4 0 34 6 67
13 l60 13 3 96 3 97 -43 -1 c-24 0 -55 -5 -70 -11z"/>
<path d="M8562 6474 c-16 -11 -22 -25 -22 -53 0 -43 14 -59 62 -71 18 -4 42
-11 53 -15 19 -7 19 -7 4 10 -15 15 -15 20 -3 44 15 28 10 56 -14 84 -19 21
-51 22 -80 1z"/>
<path d="M7635 5068 c-30 -16 -45 -39 -45 -70 0 -21 -5 -28 -20 -28 -15 0 -20
-7 -20 -25 0 -18 5 -25 20 -25 19 0 20 -7 20 -100 l0 -100 35 0 35 0 0 100 0
100 25 0 c20 0 25 5 25 25 0 20 -5 25 -26 25 -21 0 -25 4 -22 23 2 16 11 23
31 25 23 3 27 8 27 33 0 26 -3 29 -32 29 -18 0 -42 -6 -53 -12z"/>
<path d="M8557 5073 c-4 -3 -7 -84 -7 -180 l0 -173 35 0 35 0 0 69 c0 93 11
121 49 121 37 0 41 -12 41 -111 l0 -79 35 0 35 0 0 100 c0 94 -2 103 -25 125
-29 30 -59 31 -102 5 l-33 -20 0 75 0 75 -28 0 c-16 0 -32 -3 -35 -7z"/>
<path d="M5700 4891 l0 -171 35 0 35 0 0 59 0 59 50 7 c89 12 135 74 111 148
-16 47 -44 60 -143 65 l-88 4 0 -171z"/>
<path d="M9240 4890 l0 -170 35 0 35 0 0 65 0 65 55 0 c54 0 55 0 55 30 0 30
-1 30 -55 30 l-55 0 0 45 0 45 60 0 60 0 0 30 0 30 -95 0 -95 0 0 -170z"/>
<path d="M10904 5046 c-48 -21 -58 -65 -24 -109 20 -25 20 -26 0 -32 -29 -9
-60 -54 -60 -86 0 -18 11 -41 29 -61 27 -31 34 -33 93 -33 40 1 75 7 96 18 32
17 34 17 59 -3 43 -33 103 -25 103 15 0 19 -5 24 -28 23 -16 -1 -36 3 -45 8
-15 9 -15 13 7 45 28 41 49 110 40 133 -4 9 -18 16 -33 16 -24 0 -27 -4 -28
-36 -1 -36 -21 -94 -32 -94 -3 1 -23 16 -44 34 -28 25 -34 35 -23 39 8 3 22
17 32 32 14 21 14 30 4 54 -19 47 -85 63 -146 37z"/>
<path d="M11430 5047 c-24 -8 -40 -23 -53 -48 -26 -53 -10 -89 56 -124 75 -40
88 -54 76 -76 -11 -21 -69 -26 -113 -9 -25 9 -26 8 -26 -25 0 -32 2 -34 44
-40 105 -16 176 22 176 93 0 46 -20 67 -97 106 -29 15 -53 32 -53 40 0 28 29
39 85 33 55 -6 55 -6 55 22 0 24 -5 30 -31 35 -45 9 -79 7 -119 -7z"/>
<path d="M8413 5027 c-25 -8 -33 -16 -33 -33 0 -15 -6 -24 -15 -24 -9 0 -15
-9 -15 -25 0 -15 6 -25 14 -25 10 0 15 -20 18 -81 3 -71 6 -83 27 -100 17 -14
36 -19 60 -17 31 3 36 7 39 31 2 19 -1 28 -10 26 -35 -4 -38 1 -38 71 0 68 1
70 25 70 20 0 25 5 25 25 0 20 -5 25 -25 25 -21 0 -25 5 -25 29 0 37 -6 40
-47 28z"/>
<path d="M9823 5027 c-25 -8 -33 -15 -33 -33 0 -17 -6 -24 -20 -24 -15 0 -20
-7 -20 -25 0 -18 5 -25 20 -25 18 0 20 -7 20 -75 0 -68 3 -79 25 -101 20 -20
34 -25 63 -22 32 3 37 6 37 27 0 16 -6 25 -19 27 -28 4 -36 22 -36 87 0 57 0
57 30 57 25 0 30 4 30 25 0 21 -5 25 -29 25 -26 0 -30 4 -33 33 -3 32 -4 33
-35 24z"/>
<path d="M11683 5028 c-26 -7 -33 -14 -33 -33 0 -18 -5 -25 -20 -25 -15 0 -20
-7 -20 -25 0 -18 5 -25 20 -25 18 0 20 -7 20 -75 0 -67 3 -79 25 -100 16 -17
35 -25 60 -25 33 0 35 2 35 32 0 17 -3 28 -6 25 -4 -3 -15 -2 -25 4 -16 8 -19
21 -19 74 0 63 1 65 25 65 20 0 25 5 25 25 0 20 -5 25 -24 25 -21 0 -25 6 -28
33 -3 32 -4 33 -35 25z"/>
<path d="M12333 5028 c-26 -7 -33 -14 -33 -33 0 -18 -5 -25 -20 -25 -15 0 -20
-7 -20 -25 0 -18 5 -25 20 -25 18 0 20 -7 20 -70 0 -105 17 -129 93 -130 24 0
27 4 27 32 0 17 -3 28 -6 25 -4 -3 -15 -2 -25 4 -16 8 -19 21 -19 74 0 63 1
65 25 65 20 0 25 5 25 25 0 20 -5 25 -24 25 -21 0 -25 6 -28 33 -3 32 -4 33
-35 25z"/>
<path d="M5980 4845 l0 -125 35 0 35 0 0 68 c0 85 15 116 58 120 28 3 32 7 32
33 0 36 -25 39 -64 8 l-26 -20 0 20 c0 17 -6 21 -35 21 l-35 0 0 -125z"/>
<path d="M6222 4953 c-45 -22 -65 -64 -60 -125 8 -82 68 -120 162 -103 29 6
36 12 36 31 0 22 -3 23 -43 18 -33 -5 -47 -2 -66 13 -38 31 -19 43 65 43 81 0
81 0 63 63 -7 26 -21 44 -42 57 -39 24 -71 25 -115 3z"/>
<path d="M6430 4790 l0 -180 35 0 35 0 0 70 c0 39 2 70 5 70 3 0 17 -7 31 -17
34 -22 90 -8 117 29 30 40 34 124 8 165 -27 43 -77 53 -126 24 -34 -20 -35
-20 -35 -1 0 16 -7 20 -35 20 l-35 0 0 -180z"/>
<path d="M6763 4959 c-26 -8 -33 -15 -33 -35 0 -21 3 -25 18 -19 33 15 82 17
97 5 25 -21 17 -29 -37 -36 -62 -8 -98 -39 -98 -83 0 -53 58 -85 108 -60 15 7
30 15 35 17 4 2 7 -3 7 -12 0 -11 9 -16 30 -16 l30 0 0 88 c0 112 -5 127 -45
146 -37 18 -64 19 -112 5z"/>
<path d="M6980 4845 l0 -125 35 0 35 0 0 68 c0 85 15 116 58 120 28 3 32 7 32
33 0 36 -25 39 -64 8 l-26 -20 0 20 c0 17 -6 21 -35 21 l-35 0 0 -125z"/>
<path d="M7223 4955 c-44 -19 -66 -66 -61 -127 3 -26 13 -57 23 -68 26 -28 80
-43 131 -35 38 5 44 9 44 30 0 23 -3 24 -43 19 -33 -5 -47 -2 -66 13 -38 31
-19 43 65 43 81 0 81 0 63 63 -18 65 -86 93 -156 62z"/>
<path d="M7803 4956 c-43 -20 -66 -59 -66 -111 0 -83 61 -134 146 -121 82 12
123 83 98 167 -7 21 -23 46 -37 55 -34 23 -102 27 -141 10z"/>
<path d="M8040 4845 l0 -125 35 0 35 0 0 68 c0 85 15 116 58 120 28 3 32 7 32
33 0 36 -25 39 -64 8 l-26 -20 0 20 c0 17 -6 21 -35 21 l-35 0 0 -125z"/>
<path d="M8894 4954 c-45 -22 -68 -70 -62 -128 9 -80 70 -118 162 -101 29 6
36 12 36 31 0 22 -3 23 -43 18 -33 -5 -47 -2 -66 13 -38 31 -19 43 65 43 81 0
81 0 63 63 -18 66 -89 94 -155 61z"/>
<path d="M9480 4880 c0 -60 5 -101 15 -119 23 -45 84 -51 128 -13 16 14 17 13
17 -6 0 -18 6 -22 35 -22 l35 0 0 125 0 125 -35 0 -35 0 0 -80 c0 -66 -3 -83
-20 -100 -20 -20 -47 -18 -62 4 -4 6 -8 48 -8 94 l0 82 -35 0 -35 0 0 -90z"/>
<path d="M9960 4870 c0 -94 2 -103 25 -125 27 -28 58 -31 95 -10 32 19 44 19
36 0 -4 -12 3 -15 34 -15 l40 0 0 125 0 125 -35 0 -35 0 0 -80 c0 -66 -3 -83
-20 -100 -20 -20 -47 -18 -62 4 -4 6 -8 48 -8 94 l0 82 -35 0 -35 0 0 -100z"/>
<path d="M10250 4845 l0 -125 35 0 35 0 0 68 c0 85 15 116 58 120 27 3 32 7
32 28 0 34 -26 41 -61 15 -29 -21 -29 -21 -29 -1 0 16 -6 20 -35 20 l-35 0 0
-125z"/>
<path d="M10493 4955 c-64 -28 -86 -136 -38 -193 30 -35 69 -47 131 -37 38 5
44 9 44 30 0 23 -3 24 -43 19 -33 -5 -47 -2 -66 13 -37 30 -19 43 60 43 l69 0
0 38 c-1 80 -76 122 -157 87z"/>
<path d="M11853 4959 c-26 -8 -33 -15 -33 -35 0 -21 3 -25 18 -19 33 15 82 17
97 5 25 -21 17 -29 -37 -36 -62 -8 -98 -39 -98 -83 0 -58 69 -91 116 -56 25
19 34 19 34 0 0 -10 10 -15 30 -15 l30 0 0 98 c-1 60 -5 103 -13 113 -29 37
-78 47 -144 28z"/>
<path d="M12080 4845 l0 -125 35 0 35 0 0 79 c0 87 12 111 56 111 20 0 24 5
24 30 0 23 -4 30 -20 30 -11 0 -29 -9 -40 -20 l-20 -20 0 20 c0 16 -7 20 -35
20 l-35 0 0 -125z"/>
<path d="M12570 4965 c0 -3 20 -56 45 -117 25 -62 45 -119 45 -128 0 -28 -25
-52 -53 -52 -21 0 -27 -5 -27 -23 0 -43 56 -47 100 -7 22 20 43 62 79 157 71
190 68 175 28 175 l-34 0 -23 -80 c-13 -45 -26 -83 -30 -85 -4 -2 -18 34 -31
80 l-23 85 -38 0 c-21 0 -38 -2 -38 -5z"/>
<path d="M12902 4954 c-91 -47 -80 -196 17 -225 53 -16 108 -4 143 31 24 24
28 36 28 84 0 47 -4 61 -27 86 -36 39 -110 50 -161 24z"/>
<path d="M13142 4869 c4 -96 5 -103 31 -125 34 -29 66 -30 101 -3 l26 20 0
-20 c0 -17 6 -21 35 -21 l35 0 0 125 0 125 -35 0 -35 0 0 -83 c0 -88 -8 -107
-47 -107 -32 0 -43 28 -43 114 l0 76 -36 0 -36 0 4 -101z"/>
<path d="M13440 4845 l0 -125 35 0 35 0 0 79 c0 87 12 111 56 111 20 0 24 5
24 30 0 23 -4 30 -20 30 -11 0 -29 -9 -40 -20 l-20 -20 0 20 c0 16 -7 20 -35
20 l-35 0 0 -125z"/>
<path d="M5770 4558 c-64 -32 -90 -76 -90 -150 0 -99 46 -154 137 -164 74 -8
107 6 111 45 3 30 2 31 -25 24 -77 -21 -138 11 -149 78 -14 87 65 147 154 116
20 -8 22 -5 22 26 0 27 -5 36 -22 41 -45 12 -94 6 -138 -16z"/>
<path d="M7590 4410 l0 -170 35 0 34 0 3 117 3 117 75 -117 c74 -115 76 -117
113 -117 l37 0 0 170 0 170 -35 0 -35 0 0 -117 0 -118 -76 118 c-76 116 -76
117 -115 117 l-39 0 0 -170z"/>
<path d="M6043 4476 c-43 -20 -66 -59 -66 -111 0 -83 61 -134 146 -121 82 12
123 83 98 167 -7 21 -23 46 -37 55 -34 23 -102 27 -141 10z"/>
<path d="M6280 4400 c0 -60 5 -101 15 -119 23 -45 84 -51 128 -13 16 14 17 13
17 -6 0 -18 6 -22 35 -22 l35 0 0 125 0 125 -35 0 -35 0 0 -80 c0 -66 -3 -83
-20 -100 -20 -20 -47 -18 -62 4 -4 6 -8 48 -8 94 l0 82 -35 0 -35 0 0 -90z"/>
<path d="M6570 4365 l0 -125 34 0 33 0 5 79 c5 89 17 111 59 111 26 0 29 4 29
30 0 37 -24 40 -64 9 l-26 -20 0 20 c0 17 -6 21 -35 21 l-35 0 0 -125z"/>
<path d="M6793 4476 c-22 -10 -33 -23 -38 -45 -9 -42 8 -67 60 -87 32 -12 45
-22 43 -33 -4 -20 -59 -27 -88 -11 -18 10 -20 8 -20 -19 0 -26 4 -31 35 -37
78 -14 145 20 145 74 0 33 -20 54 -73 76 -52 21 -44 41 17 39 42 -1 46 1 46
22 0 36 -67 47 -127 21z"/>
<path d="M7019 4467 c-60 -40 -73 -139 -24 -191 44 -47 166 -46 173 1 3 21 1
22 -41 17 -51 -7 -87 8 -87 36 0 18 7 20 75 20 l75 0 0 30 c0 44 -19 77 -55
95 -45 21 -76 19 -116 -8z"/>
<path d="M7263 4474 c-62 -31 -52 -100 19 -129 68 -27 74 -55 12 -55 -20 0
-44 5 -55 10 -17 10 -19 7 -19 -19 0 -26 4 -31 35 -37 78 -14 145 20 145 74 0
33 -20 54 -73 76 -52 21 -44 41 17 39 42 -1 46 1 46 22 0 37 -69 47 -127 19z"/>
<path d="M8013 4475 c-44 -19 -66 -66 -60 -129 3 -38 11 -55 31 -72 57 -50
161 -39 196 19 25 40 26 114 4 146 -33 46 -110 63 -171 36z"/>
<path d="M8230 4483 c0 -4 14 -60 32 -125 l32 -118 37 0 37 0 16 68 c25 101
30 102 51 12 l18 -80 38 0 c42 0 35 -14 88 178 l20 72 -34 0 -33 0 -18 -97
-17 -98 -22 95 -21 95 -35 3 -35 3 -24 -98 -24 -98 -8 45 c-26 150 -26 150
-64 150 -19 0 -34 -3 -34 -7z"/>
<path d="M4012 4199 c-87 -44 -130 -165 -73 -209 18 -13 31 -16 47 -10 12 5
31 6 42 4 13 -4 31 5 54 25 l34 30 12 -27 c7 -15 20 -40 29 -57 l17 -30 6 25
c7 29 35 39 43 16 9 -24 -27 -100 -59 -125 -24 -19 -28 -28 -26 -64 4 -58 10
-74 27 -74 11 0 12 4 4 13 -9 11 0 26 35 66 66 73 71 83 46 108 l-20 20 24 0
c14 0 32 -10 42 -22 11 -16 15 -17 11 -5 -8 21 6 22 67 1 32 -11 46 -21 42
-30 -4 -9 2 -14 16 -14 17 0 18 2 8 15 -11 13 2 15 108 15 129 0 178 -10 168
-35 -8 -22 30 -19 44 3 11 16 11 16 6 0 -3 -10 -1 -20 4 -23 20 -13 9 42 -12
63 -43 39 -73 44 -290 40 -114 -1 -209 0 -212 3 -3 2 2 25 10 49 28 81 5 173
-51 204 -11 6 -31 19 -44 29 -33 24 -106 22 -159 -4z"/>
<path d="M3311 3695 l-1 -250 87 5 88 5 -82 3 c-46 1 -83 7 -83 12 0 5 37 11
83 13 l82 3 -82 2 -83 2 0 50 0 50 46 0 c28 0 43 4 39 10 -4 6 -12 10 -18 9
-31 -4 -67 2 -67 11 0 5 37 11 83 13 l82 3 -82 2 c-46 1 -83 6 -83 12 0 5 37
11 83 13 l82 3 -82 2 -83 2 0 50 0 50 39 0 c22 0 43 5 46 10 4 6 -12 10 -39
10 -78 0 -51 19 32 23 l77 3 -77 2 c-101 3 -103 22 -3 22 48 0 75 4 75 11 0 7
-24 10 -72 7 l-73 -3 -6 45 c-3 25 -7 -67 -8 -205z"/>
<path d="M4516 3759 c28 -55 31 -261 3 -244 -5 4 -9 2 -9 -4 0 -5 5 -13 10
-16 6 -3 10 -31 10 -61 0 -52 -1 -54 -27 -55 -16 -1 -48 -4 -73 -7 -80 -10
-244 -6 -267 7 -20 10 -23 20 -23 71 0 33 -3 60 -7 60 -5 0 -6 -25 -5 -55 l4
-55 -30 0 c-24 0 -30 -5 -35 -28 -5 -26 -13 -30 -82 -49 -41 -11 -77 -17 -79
-14 -12 19 -46 167 -42 178 4 11 -26 13 -162 11 l-167 -2 136 -3 135 -4 24
-92 c13 -50 25 -97 27 -103 2 -6 -17 -19 -43 -29 -26 -10 -69 -39 -95 -65
l-49 -46 0 -70 c0 -86 17 -168 71 -337 l41 -133 -20 -64 -20 -65 42 -12 c22
-7 56 -13 74 -13 30 0 33 -2 30 -27 l-3 -28 -600 -2 c-330 -2 -629 -4 -665 -6
-36 -2 176 -4 470 -6 294 -1 589 -3 655 -3 l120 -1 -105 -7 -105 -6 112 -2
c66 -1 114 2 118 8 3 6 34 11 68 12 l62 2 -57 3 c-56 4 -58 5 -58 31 0 32 16
52 41 52 30 0 38 22 26 67 -12 46 3 112 33 141 8 9 14 17 13 19 -16 19 18 23
212 23 186 0 214 -2 209 -15 -4 -10 -21 -16 -48 -16 -34 -2 -36 -3 -11 -6 16
-3 32 -9 35 -14 3 -5 24 15 45 44 l40 52 3 -65 c2 -36 6 -68 10 -72 4 -4 6 34
4 85 -3 107 12 165 49 184 13 7 18 13 12 13 -7 0 -13 12 -13 26 0 23 108 433
126 478 7 17 5 17 -14 -2 -12 -12 -28 -22 -34 -22 -17 0 -100 -307 -92 -337 4
-15 1 -25 -8 -28 -7 -3 -88 -4 -178 -3 l-165 3 91 18 c51 9 126 17 168 17 42
0 76 4 76 9 0 5 -22 8 -50 7 l-50 -3 38 32 c49 42 63 93 72 265 11 221 7 340
-13 378 -10 17 -20 32 -23 32 -2 0 3 -14 12 -31z m-23 -779 c7 -27 3 -57 -19
-138 l-29 -102 -194 2 -195 3 -9 34 c-7 28 -2 51 24 125 18 50 37 97 42 104 7
9 53 12 190 10 l181 -3 9 -35z"/>
<path d="M2845 3422 c-6 -5 -48 -17 -95 -27 -80 -17 -130 -34 -103 -35 6 0 71
14 145 30 73 17 151 30 173 29 27 0 -15 -13 -130 -40 -184 -43 -200 -47 -194
-54 3 -2 92 17 199 42 107 25 230 47 273 50 69 4 77 3 78 -14 0 -10 3 -13 6
-5 3 8 36 12 111 13 94 2 100 3 52 9 -76 11 -504 12 -515 2z"/>
<path d="M4460 2631 c-5 -11 -16 -26 -24 -33 -18 -19 -50 -91 -66 -150 l-12
-48 -172 -3 c-122 -2 -98 -3 84 -4 140 0 246 1 235 4 -11 3 -24 9 -29 13 -5 5
0 7 11 4 13 -4 20 0 20 10 0 13 -4 13 -35 0 -19 -8 -49 -13 -66 -13 -17 1 -23
3 -14 6 12 3 23 24 33 61 9 31 24 83 34 115 18 59 19 70 1 38z"/>
<path d="M2297 2620 c-3 -11 -1 -20 3 -20 9 0 15 -34 26 -137 l6 -62 -129 -4
c-75 -1 -29 -4 110 -5 131 -1 236 2 233 7 -9 13 16 195 27 202 5 4 7 14 4 23
-5 14 -27 16 -141 16 -125 0 -134 -1 -139 -20z"/>
<path d="M3628 1023 c-10 -2 -18 -13 -18 -23 0 -14 9 -20 38 -22 29 -2 37 -7
37 -23 0 -14 -8 -21 -27 -23 -22 -3 -28 -9 -28 -28 0 -19 5 -24 24 -24 29 0
48 -21 37 -39 -6 -9 -23 -12 -50 -9 -37 3 -41 1 -41 -19 0 -50 141 -38 161 14
12 32 4 60 -23 74 l-20 11 21 14 c21 15 27 49 13 70 -19 28 -74 40 -124 27z"/>
<path d="M3853 1009 c-34 -16 -43 -25 -43 -45 0 -19 4 -25 15 -20 8 3 22 9 30
12 13 5 15 -8 15 -85 l0 -91 35 0 35 0 0 125 c0 123 0 125 -22 124 -13 0 -42
-9 -65 -20z"/>
<path d="M4000 905 l0 -125 35 0 34 0 3 58 3 57 30 -57 c29 -57 31 -58 73 -58
48 0 48 -1 -5 82 -12 21 -23 42 -23 47 0 6 14 33 30 61 17 28 30 53 30 55 0 3
-18 5 -40 5 -38 0 -41 -2 -69 -57 l-30 -58 -1 58 0 57 -35 0 -35 0 0 -125z"/>
<path d="M7382 950 c-28 -45 -52 -92 -52 -106 0 -22 4 -24 50 -24 43 0 50 -3
50 -20 0 -16 7 -20 35 -20 28 0 35 4 35 20 0 11 7 20 15 20 9 0 15 9 15 25 0
17 -5 25 -17 25 -16 0 -18 10 -18 77 l0 78 -30 3 c-28 3 -34 -3 -83 -78z"/>
<path d="M7710 1021 c-18 -5 -25 -14 -26 -34 -1 -25 1 -26 36 -21 63 10 66
-32 5 -76 -36 -26 -55 -58 -55 -90 0 -18 7 -20 89 -20 l90 0 -1 30 c-1 29 -2
30 -52 30 l-51 1 25 20 c66 54 70 59 70 91 0 39 -7 51 -37 67 -24 12 -54 13
-93 2z"/>
<path d="M7943 1020 c-33 -14 -55 -54 -56 -107 -2 -70 9 -101 43 -118 44 -23
78 -19 111 14 26 26 29 36 29 90 0 71 -13 105 -47 120 -28 13 -50 13 -80 1z"/>
<path d="M8149 1015 c-37 -20 -52 -64 -47 -132 4 -46 10 -61 32 -80 67 -58
156 0 156 101 0 99 -67 151 -141 111z"/>
<path d="M11436 1015 c-11 -8 -28 -15 -38 -15 -21 0 -33 -22 -24 -45 4 -11 11
-13 31 -5 l25 10 0 -90 0 -90 35 0 35 0 0 125 c0 123 0 125 -22 125 -13 0 -32
-7 -42 -15z"/>
<path d="M11703 1020 c-15 -6 -23 -18 -23 -34 0 -22 3 -24 40 -19 32 5 41 2
46 -12 5 -13 -7 -30 -45 -65 -41 -37 -51 -53 -51 -78 l0 -32 85 0 85 0 0 30
c0 29 -1 30 -52 31 l-53 0 25 17 c77 52 97 98 62 142 -20 24 -84 35 -119 20z"/>
<path d="M11930 1018 c-35 -19 -50 -54 -50 -121 0 -51 4 -62 29 -88 44 -43
116 -35 139 16 28 61 22 156 -12 184 -22 19 -79 23 -106 9z"/>
<path d="M12141 1014 c-47 -33 -64 -114 -36 -179 27 -65 118 -72 156 -12 16
26 19 45 16 96 -3 55 -7 67 -31 87 -32 28 -72 31 -105 8z"/>
<path d="M3958 3 c2180 -2 5744 -2 7920 0 2176 1 393 2 -3963 2 -4356 0 -6137
-1 -3957 -2z"/>
</g>
</svg>
